<svg width="24" height="24" viewBox="0 0 24 24" fill="none" xmlns="http://www.w3.org/2000/svg">
<path d="M12 17C12 17.5523 11.5523 18 11 18H4C3.44772 18 3 17.5523 3 17V17C3 16.4477 3.44772 16 4 16H11C11.5523 16 12 16.4477 12 17V17ZM21 12C21 12.5523 20.5523 13 20 13H4C3.44772 13 3 12.5523 3 12V12C3 11.4477 3.44772 11 4 11H20C20.5523 11 21 11.4477 21 12V12ZM21 7C21 7.55228 20.5523 8 20 8H13C12.4477 8 12 7.55228 12 7V7C12 6.44772 12.4477 6 13 6H20C20.5523 6 21 6.44772 21 7V7Z" fill="#2E3A59"/>
</svg>
